<svg width="100%" viewBox="0 0 680 180" role="img" xmlns="http://www.w3.org/2000/svg">
<title>WinstonRedGuard · WRG-11</title>
<desc>AI/LLM security, OSINT tooling, detection engineering</desc>
<style>text{font-family:-apple-system,BlinkMacSystemFont,'Segoe UI',Roboto,Helvetica,Arial,sans-serif}</style>
<rect x="0" y="0" width="680" height="180" rx="12" fill="#0d1117"/>
<rect x="0.5" y="0.5" width="679" height="179" rx="12" fill="none" stroke="#30363d" stroke-width="1"/>
<path d="M78 48 L106 58 L106 92 C106 116 92 128 78 134 C64 128 50 116 50 92 L50 58 Z" fill="#1f6feb" opacity="0.18"/>
<path d="M78 48 L106 58 L106 92 C106 116 92 128 78 134 C64 128 50 116 50 92 L50 58 Z" fill="none" stroke="#58a6ff" stroke-width="2"/>
<path d="M66 89 L75 99 L92 74" fill="none" stroke="#58a6ff" stroke-width="3" stroke-linecap="round" stroke-linejoin="round"/>
<text x="140" y="86" font-size="34" font-weight="500" fill="#e6edf3">WinstonRedGuard</text>
<text x="452" y="86" font-size="20" font-weight="400" fill="#8b949e">· WRG-11</text>
<text x="142" y="120" font-size="16" font-weight="400" fill="#8b949e">AI/LLM security · OSINT tooling · detection engineering</text>
<rect x="142" y="132" width="240" height="2" rx="1" fill="#1f6feb"/>
</svg>
